<?xml version="1.0" encoding="UTF-8" standalone="no"?>
<!-- Created with Inkscape (http://www.inkscape.org/) -->

<svg
   version="1.1"
   id="svg1"
   width="2816"
   height="1536"
   viewBox="0 0 2816 1536"
   xmlns="http://www.w3.org/2000/svg"
   xmlns:svg="http://www.w3.org/2000/svg">
  <defs
     id="defs1" />
  <g
     id="g1">
    <path
       style="fill:#000000"
       d="m 1380.368,924.86299 c -19.2802,-19.5139 -36.5866,-40.86949 -54.868,-61.31661 -1.1,-1.23404 -6.0854,-6.69931 -11.0786,-12.14504 -8.0513,-8.7809 -19.3058,-21.11908 -34.9214,-38.28419 -2.75,-3.02286 -4.1842,-5.18912 -3.1871,-4.8139 6.458,2.43031 31.2579,6.64269 39.3184,6.67843 3.5764,0.0159 4.509,0.51355 6.9436,3.70535 1.5467,2.02786 4.0205,4.84036 5.4973,6.25 2.7894,2.66261 19.4011,21.9464 24.1743,28.06297 1.5022,1.925 2.7363,2.96667 2.7424,2.31483 0.01,-0.65184 -3.4838,-8.30184 -7.7554,-17 -4.2716,-8.69816 -8.6269,-17.83983 -9.6785,-20.31483 -1.0517,-2.475 -2.0731,-4.77409 -2.2699,-5.10909 -0.1968,-0.335 1.6438,-0.88345 4.0903,-1.21878 2.4465,-0.33532 8.3848,-1.97373 13.1964,-3.6409 4.8116,-1.66718 9.0959,-3.03123 9.5209,-3.03123 0.4249,0 1.068,0.93097 1.4291,2.06883 0.3612,1.13785 3.2667,7.55035 6.4567,14.25 14.8473,31.18196 18.7891,39.58502 21.0689,44.9141 1.3489,3.15312 2.6776,5.74087 2.9526,5.75057 0.275,0.01 0.275,-18.99512 0,-42.23293 l -0.5,-42.25057 10.0371,-10 c 5.5203,-5.5 11.9328,-12.92125 14.25,-16.49166 2.3171,-3.57041 4.2261,-6.04541 4.2422,-5.5 0.016,0.54541 0.043,26.86666 0.059,58.49166 l 0.03,57.5 5.6908,-11.53617 c 3.1299,-6.3449 8.3523,-17.1449 11.6054,-24 3.2531,-6.85511 9.8378,-20.56383 14.6327,-30.46383 16.313,-33.68187 28.0321,-58.23645 42.2382,-88.5 1.9364,-4.125 7.6155,-15.99068 12.6203,-26.36818 5.0048,-10.37749 12.3158,-25.82343 16.2467,-34.32429 8.1304,-17.58297 8.1262,-14.25744 0.036,-28.80753 -2.1405,-3.85 -5.3746,-9.7 -7.1868,-13 -1.8122,-3.3 -5.029,-9.00351 -7.1485,-12.67447 -2.1195,-3.67096 -3.8537,-6.9765 -3.8537,-7.34563 0,-0.36914 -0.8304,-1.86563 -1.8453,-3.32553 -1.0148,-1.4599 -4.1028,-6.92937 -6.8621,-12.15437 -6.5546,-12.41167 -12.7318,-23.55877 -15.6903,-28.3138 -0.7481,-1.20241 -3.3755,-6.0112 -5.8386,-10.6862 -2.463,-4.675 -5.608,-10.525 -6.9887,-13 -1.3807,-2.475 -4.4328,-8.1 -6.7824,-12.5 -2.3496,-4.4 -6.2341,-11.47189 -8.6323,-15.71531 L 1450,491.06938 V 462.03469 433 h 34.5 34.5 v 14 14 h -20.5456 -20.5456 l 0.1544,11.93718 0.1544,11.93718 4.8894,8.30752 c 2.6892,4.56913 5.0037,8.65035 5.1434,9.06937 0.3052,0.91564 22.246,1.29919 56.1663,0.98186 24.2053,-0.22645 57.4403,0.002 55.6071,0.0419 -1.1022,0.0239 -0.064,-0.0135 0.1763,0.1044 1.3703,0.67232 18.8358,28.6834 20.9522,31.81572 3.7739,6.16524 7.6879,12.25326 11.5981,18.41906 7.2074,11.22623 30.1869,45.89619 31.214,47.0936 0.5698,0.66429 1.036,1.48788 1.036,1.83021 0,0.34232 2.6261,4.52382 5.8358,9.2922 3.2097,4.76839 8.8957,13.27524 12.6355,18.90411 7.5698,11.39355 7.5404,9.92679 0.3568,17.76114 -2.0196,2.2025 -4.4946,4.94889 -5.5,6.10308 -1.0055,1.15419 -4.3784,4.97919 -7.4955,8.5 -3.1171,3.52081 -6.6407,7.52647 -7.8303,8.90147 -3.5678,4.12395 -15.3224,17.18334 -18.0023,20.00058 -1.375,1.44547 -5.1915,5.74917 -8.4811,9.56377 -3.2897,3.81461 -6.6684,7.61065 -7.5082,8.43565 -1.249,1.22686 -10.5553,11.65858 -24.6757,27.65981 -5.7404,6.50507 -16.1011,18.06269 -18.335,20.45312 -1.375,1.47138 -4.0425,4.41039 -5.9279,6.53115 -1.8853,2.12076 -5.2276,5.88092 -7.4275,8.35592 -2.1998,2.475 -8.3459,9.225 -13.658,15 -5.3121,5.775 -11.4198,12.525 -13.5725,15 -2.1528,2.475 -4.1391,4.725 -4.4141,5 -0.4347,0.43472 -10.6877,11.8009 -22.0977,24.49684 -1.9787,2.20174 -9.1759,10.30316 -15.9938,18.00316 -6.8179,7.7 -12.8489,14.48535 -13.4023,15.07857 -6.9877,8.45103 -14.0573,16.01172 -21.0099,24.48578 -27.4955,34.299 -27.5976,34.21912 -54.3258,67.44227 0,0 -7.364,-5.88423 -33.8029,-32.64363 z m 88.4027,-77.67875 c 3.4488,-4.22633 7.8888,-9.48424 9.8667,-11.68424 1.9778,-2.2 6.4324,-7.15 9.899,-11 3.4667,-3.85 7.1267,-7.95124 8.1333,-9.11387 1.0067,-1.16262 4.0803,-4.57931 6.8303,-7.59265 2.75,-3.01333 6.35,-7.01301 8,-8.88819 9.5855,-10.89359 31.3317,-35.17952 37.5,-41.8796 2.7566,-2.99427 14.4438,-16.09073 17.3278,-19.41738 1.0053,-1.15957 3.7365,-4.13331 6.0693,-6.60831 2.3328,-2.475 6.4146,-6.975 9.0707,-10 12.0828,-13.76108 17.284,-19.5938 20.5322,-23.02536 1.925,-2.03367 4.826,-5.22242 6.4467,-7.08611 6.2307,-7.16494 26.1834,-29.4143 28.8033,-32.11877 1.5125,-1.56129 2.75,-3.0482 2.75,-3.30424 0,-0.25604 -18.5625,-0.46071 -41.25,-0.45482 l -41.25,0.0107 -4.4278,9.23931 c -2.4352,5.08161 -8.1173,16.8893 -12.6268,26.2393 -4.5094,9.35 -10.7877,22.4 -13.9516,29 -14.015,29.2354 -18.7981,39.16154 -27.4664,57 -5.0779,10.45 -10.828,22.375 -12.7778,26.5 -1.9498,4.125 -8.3947,17.5125 -14.3219,29.75 -5.9273,12.2375 -10.4733,22.22041 -10.1023,22.18424 0.371,-0.0362 3.4964,-3.52366 6.9453,-7.75 z m 177.6214,-221.46012 c -0.3816,-0.67326 -5.8639,-9.09912 -12.1828,-18.72412 -26.0823,-39.7285 -44.1225,-66.46853 -46.1378,-69.70738 l -3.1906,-5.20739 -40.3755,-0.0629 -40.3756,-0.0629 3.793,6.77025 c 2.0862,3.72363 6.0624,10.82024 8.8361,15.77024 2.7737,4.95 6.0383,10.8 7.2548,13 3.7384,7.70973 8.7945,14.67829 12.6999,22.25 0.6337,1.5125 2.6891,5.45 4.5677,8.75 1.8785,3.3 4.3116,7.575 5.4068,9.5 1.0952,1.925 3.8852,6.95299 6.1999,11.17332 l 4.2086,7.67332 44.9947,0.0508 c 35.2116,0.0398 44.8439,-0.21536 44.3008,-1.17332 z M 1300.5,789.3315 c -13.832,-1.70056 -32.6891,-8.29886 -46,-16.09586 -19.5353,-11.44306 -31.7163,-22.47742 -55.8888,-50.62792 -2.6888,-3.1313 -6.0638,-6.9703 -7.5,-8.5311 -3.1349,-3.40694 -15.8665,-17.54841 -18.4444,-20.48696 -9.3869,-10.69998 -22.1789,-25.12757 -26.6668,-30.07645 -3.025,-3.33569 -7.975,-8.94001 -11,-12.45405 -3.025,-3.51404 -6.0625,-6.95777 -6.75,-7.65273 -0.6875,-0.69497 -1.25,-1.62434 -1.25,-2.06528 0,-0.78241 6.5931,-11.85328 8.2429,-13.84115 1.0058,-1.21192 11.0446,-16.5921 19.2571,-29.50335 7.8471,-12.33672 18.1581,-28.21775 19.1866,-29.55123 0.4474,-0.58002 1.343,-1.93002 1.9903,-3 0.6473,-1.06998 3.9205,-6.22042 7.2738,-11.44542 3.3532,-5.225 6.6486,-10.37544 7.323,-11.44542 0.6745,-1.06998 1.5879,-2.41998 2.0298,-3 0.4419,-0.58002 5.9049,-8.83237 12.14,-18.33855 l 11.3365,-17.28397 55.5117,0.0248 55.5116,0.0248 c 12.7424,-19.85695 2.4606,-3.05449 9.3609,-13.98528 2.3077,-3.65569 1.8358,-5.87935 1.8358,-16.95572 v -11.99917 l -20.25,-0.2707 -20.25,-0.27071 -0.2783,-13.76299 -0.2783,-13.76299 34.7783,0.26299 34.7783,0.26299 0.2065,28.15269 0.2065,28.15268 c -4.0106,6.92143 -7.8149,13.91503 -11.7268,20.90062 -1.5475,2.63671 -5.4679,9.74401 -8.7119,15.79401 -5.912,11.02561 -10.1461,18.82687 -12.7547,23.5 -0.7675,1.375 -3.1003,5.65 -5.184,9.5 -2.0837,3.85 -4.1147,7.45 -4.5135,8 -0.3988,0.55 -2.8824,5.05 -5.5192,10 -2.6368,4.95 -6.6834,12.375 -8.9925,16.5 -2.309,4.125 -5.5491,9.975 -7.2,13 -3.8551,7.06336 -12.338,22.20566 -15.6861,28 -1.4301,2.475 -2.6056,5.10582 -2.6123,5.84626 -0.01,0.74044 2.189,5.91544 4.8792,11.5 5.6647,11.75937 12.5053,26.13796 18.8653,39.65374 7.1528,15.20062 10.4661,22.20371 26.6563,56.34158 2.8259,5.95842 5.1449,9.66563 5.8774,9.39566 0.6654,-0.24526 3.5675,-1.22106 6.4492,-2.16844 5.3805,-1.76888 17.8133,-9.40808 22.2606,-13.67774 10.4885,-10.06965 18.6044,-24.27286 21.5315,-37.68154 0.9257,-4.24024 2.0848,-8.74319 2.5758,-10.00657 0.7932,-2.04104 1.358,-82.20295 0.5791,-82.20295 -0.1725,0 -9.735,3.07922 -21.25,6.84272 -11.515,3.76349 -24.3114,7.90049 -28.4364,9.19332 -4.125,1.29283 -8.0734,2.77774 -8.7742,3.29978 -2.9418,2.19147 -1.9024,-0.64731 4.0094,-10.95047 3.4456,-6.00511 6.9391,-12.26095 7.7632,-13.90187 0.8241,-1.64091 1.7276,-3.20848 2.0076,-3.48348 0.2801,-0.275 1.8216,-2.975 3.4256,-6 4.755,-8.96758 5.0429,-9.47785 5.6434,-10 0.3163,-0.275 2.5663,-4.325 5,-9 2.4338,-4.675 4.65,-8.725 4.925,-9 0.6109,-0.61093 2.8657,-4.58442 10.2141,-18 1.9582,-3.575 4.811,-8.75 6.3396,-11.5 3.0715,-5.52582 6.2624,-11.41753 10.2903,-19 1.4608,-2.75 2.9148,-5.225 3.2312,-5.5 0.3164,-0.275 2.5664,-4.21206 5,-8.74901 4.1796,-7.79193 5.9224,-9.85056 5.9267,-7.00099 0,0.6875 2.1631,4.85 4.8046,9.25 2.6415,4.4 5.1101,8.80985 5.4858,9.79966 0.3757,0.98981 2.6372,5.03981 5.0256,9 2.3885,3.96019 4.9789,8.66284 5.7565,10.45034 0.7776,1.7875 1.754,3.25 2.1697,3.25 0.4158,0 0.7559,0.45055 0.7559,1.00121 0,0.55067 3.5958,7.04064 7.9906,14.42217 7.8155,13.12664 9.3096,15.7855 17.9879,32.00886 2.3337,4.36274 4.8683,8.55738 5.6323,9.32143 0.7641,0.76405 1.3892,1.79108 1.3892,2.28229 0,0.49121 1.9455,4.17156 4.3233,8.17857 8.5075,14.33655 12.6937,22.10181 12.1876,22.60787 -0.5609,0.56091 -4.0784,-0.52534 -37.1844,-11.48316 -12.1954,-4.03658 -22.4329,-7.33924 -22.75,-7.33924 -0.3171,0 -0.5765,17.73865 -0.5765,39.41923 0,38.19345 -0.079,39.81609 -2.5395,52.18202 -4.9446,24.85026 -13.8783,41.54167 -30.7215,57.39875 -14.7584,13.89444 -34.7589,23.9703 -54.739,27.57654 -6.8231,1.23152 -26.0918,1.66576 -33.5,0.75496 z m 7.5,-29.20938 c 0,-1.19622 -2.4471,-6.9753 -7.2502,-17.12212 -45.3568,-95.81829 -41.2141,-87.68916 -45.0071,-88.31636 -1.7835,-0.29492 -20.2302,-0.57387 -40.9927,-0.61989 -29.741,-0.0659 -37.7482,0.18365 -37.7413,1.17629 0,0.69298 1.4792,2.83496 3.2765,4.75996 1.7972,1.925 8.4143,9.35 14.7045,16.5 6.2902,7.15 11.6783,13.225 11.9735,13.5 0.2953,0.275 4.1368,4.55 8.5368,9.5 4.4,4.95 8.45,9.49768 9,10.10596 0.55,0.60828 4.375,4.88253 8.5,9.49834 19.0682,21.337 33.7157,31.9285 51.8882,37.52005 12.1008,3.72333 23.1118,5.38975 23.1118,3.49777 z M 1262.313,621.75 c 1.5019,-2.8875 3.7654,-7.05 5.03,-9.25 1.2646,-2.2 4.1219,-7.375 6.3496,-11.5 2.2277,-4.125 5.0826,-9.3 6.3441,-11.5 3.2357,-5.64248 15.4944,-27.753 19.6822,-35.5 3.4348,-6.35398 5.8308,-10.67374 10.1226,-18.25 l 2.1243,-3.75 -40.7329,0.002 -40.7329,0.002 -2.9414,4.74821 c -1.6178,2.61151 -9.4384,14.64821 -17.3791,26.74821 -7.9407,12.1 -16.7831,25.6 -19.6498,30 -2.8666,4.4 -8.7711,13.4 -13.1209,20 -4.3498,6.6 -8.0588,12.3375 -8.2421,12.75 -0.1834,0.4125 20.0851,0.75 45.0411,0.75 h 45.3744 z m 145.3924,-174.37793 c -0.388,-0.38797 -0.7054,-1.7696 -0.7054,-3.07028 0,-3.91879 -3.9341,-14.34559 -7.2081,-19.10418 -6.5666,-9.54426 -15.0922,-15.60929 -25.7919,-18.34819 -3.575,-0.91513 -5.825,-1.87297 -5,-2.12855 0.825,-0.25558 4.2,-1.25565 7.5,-2.22237 7.3688,-2.15868 14.7545,-6.78927 19.842,-12.4403 4.2753,-4.7489 9.3503,-14.69376 10.236,-20.0582 1.0879,-6.58949 1.6042,-6.49153 3.4422,0.65303 2.3663,9.19817 4.7254,13.7355 10.4546,20.10774 5.2403,5.82847 15.8403,11.71406 23.0422,12.79404 5.5776,0.83643 5.751,2.05516 0.4206,2.95574 -2.2344,0.37748 -7.1163,2.21414 -10.8489,4.08145 -12.1736,6.09024 -20.5553,17.40031 -23.4897,31.69674 -0.6535,3.1838 -1.5056,5.4713 -1.8936,5.08333 z m -75.824,-84.03067 c -6.4922,-6.41222 -12.5276,-13.18332 -13.4119,-15.04687 -4.514,-9.51268 6.3801,-17.47991 14.9361,-10.92321 5.0623,3.87934 23.0315,22.58515 23.8702,24.84861 1.0826,2.92183 -0.931,8.36366 -3.9831,10.76443 -1.4675,1.1544 -4.0675,2.01564 -6.0849,2.01564 -3.1535,0 -4.7587,-1.22102 -15.3264,-11.6586 z m 129.8669,9.13414 c -2.7297,-2.7297 -3.7411,-6.06257 -3.0062,-9.90683 0.6619,-3.46224 25.3672,-27.53439 28.4121,-27.68386 4.8716,-0.23915 6.4229,0.30384 9.0958,3.18371 1.993,2.14741 2.75,4.00411 2.75,6.74536 0,3.5089 -0.894,4.67234 -12.3655,16.09205 -6.801,6.77033 -12.9885,12.70427 -13.75,13.18655 -2.8704,1.81793 -8.5219,0.99735 -11.1362,-1.61698 z m -59.4869,-33.00502 c -3.1742,-2.22327 -3.9389,-6.28359 -4.1712,-22.14837 -0.246,-16.78871 0.7589,-21.67563 4.8969,-23.81547 5.6482,-2.92079 10.8938,-1.57144 13.5025,3.4733 1.1746,2.27131 1.5104,6.72614 1.5104,20.0361 0,17.24567 -0.4871,20.07155 -3.9133,22.70212 -2.2375,1.71785 -9.2282,1.57143 -11.8253,-0.24768 z"
       id="path1" />
  </g>
</svg>
