<?xml version="1.0" encoding="UTF-8" standalone="no"?>
<!-- Created with Inkscape (http://www.inkscape.org/) -->

<svg
   version="1.1"
   id="svg1"
   width="2816"
   height="1536"
   viewBox="0 0 2816 1536"
   xmlns="http://www.w3.org/2000/svg"
   xmlns:svg="http://www.w3.org/2000/svg">
  <defs
     id="defs1" />
  <g
     id="g1">
    <path
       style="fill:#000000"
       d="m 980.48716,1243.9792 c -0.34698,-0.5614 -0.51023,-8.6614 -0.36279,-18 L 980.39245,1209 h 8.17877 c 10.49171,0 13.81568,0.7024 16.91458,3.5744 3.1585,2.9272 3.4295,8.5103 0.5527,11.3871 -1.9488,1.9488 -1.9422,1.9809 1,4.9231 5.7361,5.7362 2.9478,13.1702 -5.6918,15.1751 -5.29179,1.2279 -20.08616,1.1709 -20.85954,-0.081 z m 23.29034,-4.5359 c 2.8619,-2.0046 2.9216,-6.4998 0.1201,-9.0383 -1.7245,-1.5626 -3.6477,-1.905 -10.69973,-1.905 h -8.59737 l 0.14596,6 c 0.0803,3.3 0.17018,6.1125 0.19976,6.25 0.0296,0.1375 3.77865,0.25 8.33127,0.25 5.87332,0 8.92301,-0.4521 10.50001,-1.5567 z M 1001,1223.7125 c 1.6922,-0.8516 2.5965,-2.2366 2.7985,-4.2864 0.473,-4.7983 -2.0082,-6.2443 -11.1735,-6.5113 l -7.875,-0.2295 0.0625,5.6574 c 0.0344,3.1115 0.0906,5.8823 0.125,6.1573 0.13342,1.0673 13.69813,0.4023 16.0625,-0.7875 z m 40.0711,19.5359 c -6.6155,-3.3733 -7.5295,-5.7851 -7.9212,-20.9028 l -0.3501,-13.5109 2.3501,0.3326 c 2.3033,0.3261 2.36,0.5981 2.8501,13.6728 0.4913,13.1084 0.5487,13.382 3.3058,15.75 3.9954,3.4318 10.4822,3.3491 14.0098,-0.1784 3.1502,-3.1502 4.0338,-8.1704 3.5438,-20.1343 -0.352,-8.5963 -0.3104,-8.7843 2.0146,-9.1132 l 2.374,-0.3358 -0.4503,12.946 c -0.3641,10.4694 -0.8248,13.5944 -2.408,16.3358 -2.3115,4.0024 -7.5006,6.8867 -12.3897,6.8867 -1.925,0 -5.043,-0.7868 -6.9289,-1.7485 z m 48.3295,0.353 c -0.2952,-0.7692 -0.3936,-8.7567 -0.2187,-17.75 0.3129,-16.0856 0.3547,-16.3566 2.5681,-16.671 l 2.25,-0.3195 v 18.0695 c 0,17.496 -0.064,18.0696 -2.0314,18.0696 -1.1172,0 -2.2729,-0.6294 -2.568,-1.3986 z m 39.8494,0.6082 -8.25,-0.2905 v -17.4595 c 0,-16.7929 0.076,-17.4596 2,-17.4596 1.9167,0 2,0.6667 2,16 v 16 h 9.5733 c 8.5791,0 9.5384,0.1817 9.2366,1.75 -0.3662,1.903 -0.7813,1.9446 -14.5599,1.4596 z M 1171,1229 v -16 h -6.5 c -5.8333,0 -6.5,-0.2051 -6.5,-2 0,-1.9085 0.6667,-2 14.5733,-2 13.3396,0 14.5452,0.1482 14.2403,1.75 -0.2627,1.3804 -1.5453,1.8133 -6.0733,2.0499 l -5.7403,0.2999 v 15.9501 c 0,15.2834 -0.084,15.9501 -2,15.9501 -1.9167,0 -2,-0.6667 -2,-16 z m 68.7852,15.4543 c -0.1569,-0.1555 -0.1522,-8.2466 0.01,-17.9802 l 0.2955,-17.6976 10.4129,0.3855 c 11.5627,0.428 15.2323,2.0202 16.6207,7.2117 0.871,3.2567 -0.6542,8.2318 -2.7728,9.0448 -1.1736,0.4503 -0.825,1.1539 1.5699,3.1691 5.7019,4.7978 3.6117,12.3721 -4.2346,15.345 -2.3936,0.9069 -21.0648,1.3516 -21.9019,0.5217 z m 23.7603,-5.9088 c 3.0256,-3.0257 3.0432,-3.7496 0.1726,-7.0868 -2.0557,-2.3899 -3.1458,-2.7067 -11,-3.1967 L 1244,1227.7181 v 6.6409 6.641 h 8.5455 c 7.7396,0 8.7769,-0.2315 11,-2.4545 z m -2,-16 c 2.9843,-2.9844 3.0162,-3.5617 0.3819,-6.9106 -1.9276,-2.4506 -2.6269,-2.6349 -10,-2.6349 H 1244 v 6 6 h 7.5455 c 6.6778,0 7.8276,-0.2822 10,-2.4545 z m 39.4545,15.953 c 0,-6.2886 -0.2262,-6.87 -6.906,-17.75 -5.4328,-8.8489 -6.5625,-11.3259 -5.2957,-11.6112 1.9707,-0.4438 4.7486,2.94 9.8296,11.9736 2.1296,3.7863 4.0971,6.883 4.3721,6.8815 0.275,0 3.1246,-4.2754 6.3324,-9.4976 4.1642,-6.779 6.393,-9.4948 7.7922,-9.4948 1.8358,0 1.7859,0.3004 -0.7875,4.75 -1.511,2.6125 -4.68,7.7921 -7.0422,11.5102 -3.9242,6.1768 -4.2949,7.3204 -4.2949,13.25 0,5.8231 -0.2055,6.4898 -2,6.4898 -1.7949,0 -2,-0.6667 -2,-6.5015 z m 69,-11.5681 v -18.0695 l 2.25,0.3195 c 1.7327,0.2461 3.8593,3.2439 9.25,13.039 3.85,6.9957 7.225,12.7248 7.5,12.7313 0.275,0.01 3.5976,-5.5796 7.3835,-12.4137 6.5321,-11.7911 8.5955,-14.2861 10.7259,-12.9694 0.5202,0.3215 0.8899,8.2693 0.8402,18.0637 -0.088,17.3776 -0.1025,17.4876 -2.2691,17.1791 -2.1268,-0.3028 -2.1757,-0.6369 -1.9857,-13.5604 0.1071,-7.2875 -0.1179,-13.2408 -0.5,-13.2296 -0.3822,0.011 -3.4197,4.8487 -6.7501,10.75 -3.3304,5.9013 -6.6854,10.7296 -7.4554,10.7296 -0.7701,0 -4.1071,-4.8131 -7.4156,-10.6958 -3.3085,-5.8826 -6.1899,-10.5213 -6.4031,-10.3082 -0.2131,0.2132 -0.3166,6.2638 -0.2299,13.4458 L 1375.0984,1245 H 1372.5492 1370 Z m 64.6667,17.4029 c -0.3667,-0.3666 -0.6667,-8.4666 -0.6667,-18 V 1209 h 2.591 2.591 l -0.341,10.5011 c -0.1875,5.7756 -0.2627,10.5006 -0.167,10.5 0.096,-6e-4 4.841,-4.7768 10.5453,-10.6138 6.7704,-6.928 10.9639,-10.4868 12.0779,-10.25 1.3036,0.277 0.03,2.1977 -5.3946,8.1328 -3.9056,4.2736 -6.8818,8.3236 -6.6138,9 0.2681,0.6765 3.6878,4.9151 7.5993,9.4192 3.9116,4.5042 7.1119,8.4417 7.1119,8.75 0,0.3084 -0.8865,0.5607 -1.9701,0.5607 -1.2258,0 -4.7202,-3.1728 -9.25,-8.3986 l -7.2799,-8.3986 -3.25,3.4009 c -2.7795,2.9086 -3.25,4.1245 -3.25,8.3986 0,4.1796 -0.3001,4.9977 -1.8333,4.9977 -1.0084,0 -2.1334,-0.3 -2.5,-0.6667 z m 60.0183,-0.2919 c -11.1441,-3.5756 -15.8253,-16.6062 -9.5902,-26.6948 4.6087,-7.457 15.9546,-10.4375 24.3189,-6.3884 2.5225,1.2211 4.5863,2.6442 4.5863,3.1624 0,1.8393 -2.8653,2.0004 -6.0733,0.3415 -4.2563,-2.201 -13.0232,-1.5897 -16.0136,1.1165 -10.4057,9.417 -4.1735,25.4148 9.9026,25.4198 7.0409,0 8.1843,-1.1198 8.1843,-8.0336 0,-5.3425 0.2134,-5.9648 2.0457,-5.9648 1.8854,0 2.0225,0.5208 1.75,6.6472 -0.2575,5.7892 -0.626,6.8931 -2.8545,8.5525 -2.9373,2.1872 -11.9849,3.2122 -16.2562,1.8417 z m 76.815,0.1716 c -1.9114,-0.2743 -2,-1.0493 -2,-17.5 V 1209.5 l 7,-0.3136 c 9.7827,-0.4382 14.8736,0.5037 17.9047,3.3128 3.1291,2.9 3.4913,8.1727 0.7904,11.5082 -1.7649,2.1795 -1.7427,2.2912 1,5.0339 6.3292,6.3292 1.9739,14.2657 -8.4348,15.3706 -4.9623,0.5267 -11.7853,0.4433 -16.2603,-0.1989 z m 21.2775,-4.7697 c 2.8619,-2.0046 2.9216,-6.4998 0.1201,-9.0383 -1.7265,-1.5644 -3.6485,-1.905 -10.75,-1.905 H 1573.5 l -0.2977,6.25 -0.2977,6.25 h 8.8252 c 6.369,0 9.4437,-0.4333 11.0477,-1.5567 z m -2,-16 c 2.6567,-1.8608 2.9296,-6.0044 0.5675,-8.6146 -1.3436,-1.4846 -3.1782,-1.8288 -9.75,-1.8294 l -8.095,-6e-4 0.1932,5.7506 c 0.1063,3.1629 0.2188,5.8632 0.25,6.0007 0.031,0.1375 3.3317,0.25 7.3343,0.25 4.9682,0 7.9827,-0.494 9.5,-1.5567 z m 41.5554,20.5111 c -4.324,-1.3225 -8.0854,-6.097 -8.8306,-11.2092 -0.3403,-2.3348 -0.4801,-8.5202 -0.3105,-13.7452 0.2746,-8.4659 0.5096,-9.5 2.1584,-9.5 1.6846,0 1.8816,1.1357 2.2016,12.686 0.2158,7.7922 0.8314,13.4548 1.5959,14.6788 2.4184,3.8725 9.1748,5.3123 14.195,3.0249 4.0066,-1.8255 4.894,-5.2978 4.7634,-18.6397 l -0.1199,-12.25 h 2.4011 2.4011 l -0.4782,13.2121 c -0.5121,14.1493 -1.4853,17.5461 -5.8454,20.4029 -3.0512,1.9993 -9.8633,2.6449 -14.1319,1.3394 z M 1679,1227 c 0,-17.3333 0.074,-18 2,-18 1.9259,0 2,0.6667 2,18 0,17.3333 -0.074,18 -2,18 -1.9259,0 -2,-0.6667 -2,-18 z m 31.5514,17.2181 c -0.3033,-0.3033 -0.5514,-8.3514 -0.5514,-17.8848 0,-16.6666 0.077,-17.3333 2,-17.3333 1.9167,0 2,0.6667 2,16 v 16 h 10.107 c 8.8054,0 10.0288,0.2037 9.5,1.5818 -0.3339,0.87 -0.607,1.7913 -0.607,2.0473 0,0.6578 -21.7785,0.259 -22.4486,-0.411 z M 1756,1227.1337 V 1209 l 7.75,0.01 c 13.2469,0.01 19.9919,3.0131 23.3446,10.3955 2.4832,5.4679 2.3781,10.2377 -0.3446,15.637 -3.4115,6.7653 -8.5428,9.1599 -20.9034,9.7551 l -9.8466,0.4742 z m 20.9289,12.1147 c 9.8458,-5.0204 10.4695,-17.7681 1.1732,-23.9785 -2.7632,-1.8459 -4.771,-2.2699 -10.75,-2.2699 H 1760 v 14 14 h 6.75 c 4.4496,-10e-4 7.9186,-0.5974 10.1789,-1.75 z m 38.6959,4.2825 c -4.8249,-1.7198 -6.399,-3.1567 -4.9955,-4.5602 0.7057,-0.7057 1.9474,-0.5504 3.95,0.4939 3.5805,1.8671 13.2829,1.9559 15.6707,0.1434 0.9625,-0.7307 1.75,-2.4466 1.75,-3.8133 0,-3.4569 -2.5188,-5.3657 -9.4566,-7.1666 -8.2325,-2.1369 -10.971,-4.37 -11.3396,-9.2467 -0.2466,-3.263 0.2098,-4.4035 2.7279,-6.8159 3.8112,-3.6514 11.5928,-4.6267 17.4359,-2.1853 3.856,1.6112 4.6319,4.4524 1.0248,3.7528 -1.0408,-0.2019 -4.5111,-0.5809 -7.7117,-0.8423 -7.0867,-0.5788 -9.956,1.2852 -9.4792,6.1582 0.2822,2.885 0.7612,3.2012 8.7985,5.8077 4.7774,1.5494 9.2664,3.6782 10.25,4.8608 2.1578,2.5945 2.2639,7.7039 0.2205,10.6212 -2.7911,3.9849 -11.7683,5.315 -18.8457,2.7923 z m -513.2021,-86.9493 c -4.0577,-1.7669 -8.9834,-7.8583 -10.9371,-13.5256 -0.8638,-2.5058 -2.8847,-10.8292 -4.4909,-18.4965 -3.0823,-14.7141 -5.8927,-21.656 -10.0005,-24.7023 -3.2623,-2.4192 -12.2867,-4.0242 -20.5429,-3.6534 l -6.5972,0.2962 0.1069,23.977 c 0.1284,28.8308 -0.063,28.2595 10.0394,29.9548 1.375,0.2308 2.8375,0.453 3.25,0.4939 0.4125,0.041 0.75,0.9743 0.75,2.0743 0,1.9434 -0.6667,2 -23.5696,2 h -23.5695 l 0.3195,-2.2413 c 0.2691,-1.8869 1.0312,-2.2893 4.8196,-2.5445 2.8301,-0.1906 5.2422,-1.0388 6.5,-2.2856 1.9387,-1.9217 2.0093,-3.5211 2.3042,-52.2055 0.1673,-27.6227 0.04,-51.6535 -0.2819,-53.4017 -0.9187,-4.9821 -3.6228,-7.5671 -8.6123,-8.2329 -3.5943,-0.4796 -4.4691,-1.0047 -4.7296,-2.8385 l -0.3195,-2.25 h 29.1117 c 31.6859,0 40.0401,0.9458 49.1557,5.565 13.5803,6.8817 19.9176,21.9184 15.0477,35.7039 -3.6952,10.4603 -11.6222,17.9487 -23.6649,22.3555 -3.476,1.272 -5.3785,2.4156 -4.5111,2.7117 0.825,0.2816 3.2716,1.0588 5.4368,1.7272 2.256,0.6963 5.9296,3.2078 8.6041,5.8823 5.3131,5.3132 7.3968,10.5722 11.4148,28.8098 1.3638,6.1904 2.9413,12.1178 3.5054,13.172 3.1648,5.9134 8.0826,6.7025 13.0212,2.0892 2.8818,-2.692 3.3448,-2.8324 4.7405,-1.4367 1.3957,1.3957 1.2161,1.8944 -1.838,5.1056 -6.3612,6.6881 -16.842,9.2143 -24.4625,5.8961 z m -27.0005,-67.008 c 7.2733,-2.189 11.3216,-5.4442 14.3135,-11.5096 2.3925,-4.8503 2.6737,-6.5202 2.6101,-15.5 -0.077,-10.8907 -1.2412,-14.9099 -5.9342,-20.4871 -4.9559,-5.8898 -9.5777,-7.5013 -21.6289,-7.5413 -15.7504,-0.052 -14.7373,-2.0901 -15.0383,30.2486 l -0.244,26.2166 10.5911,-4e-4 c 6.2885,-2e-4 12.5165,-0.5799 15.3307,-1.4268 z m 661.7578,66.7446 c -6.9906,-3.4448 -10.3118,-10.7166 -14.6118,-31.9921 -4.8202,-23.85 -8.1335,-27.3246 -26.8178,-28.1234 l -10.75,-0.4596 0.01,22.3784 c 0,12.3812 0.4693,24.0485 1.0437,26.1167 1.1529,4.1512 3.3341,5.7618 7.8032,5.7618 4.284,0 6.1475,0.9418 6.1475,3.107 0,1.7935 -1.1304,1.9018 -21.5,2.0597 -11.825,0.092 -22.2502,0.2041 -23.1671,0.25 -1.0393,0.052 -1.7292,-0.7589 -1.8319,-2.1529 -0.1352,-1.8356 0.477,-2.3397 3.4171,-2.8137 6.2411,-1.0061 7.9017,-2.1391 9.0158,-6.1511 1.453,-5.2326 1.4541,-100.8874 0,-105.0553 -1.1133,-3.1936 -4.1352,-4.9402 -9.4351,-5.4533 -2.2395,-0.2168 -3.081,-0.8608 -3.3196,-2.5404 l -0.3195,-2.25 27.8195,0.02 c 40.3113,0.029 48.1312,1.6318 58.4901,11.9907 4.5209,4.5209 6.0298,6.8706 7.368,11.474 3.7368,12.8541 -1.822,26.8628 -13.8193,34.8262 -4.7532,3.155 -7.831,4.6097 -15.2192,7.1931 -1.5518,0.5426 -0.78,1.0192 3.4437,2.1268 12.3135,3.229 16.916,10.4801 22.1332,34.8694 1.1765,5.5 2.9713,11.632 3.9885,13.6267 3.0278,5.9374 7.6169,6.5428 12.6462,1.6682 3.1091,-3.0135 3.4082,-3.1037 5.0027,-1.5092 1.5945,1.5945 1.4893,1.913 -1.7592,5.3272 -1.9003,1.9972 -5.2551,4.4665 -7.4551,5.4872 -5.0021,2.3209 -13.8397,2.4262 -18.3204,0.2181 z M 1915,1088.3588 c 5.4794,-2.466 10.528,-7.9973 11.9399,-13.0815 1.5953,-5.7448 1.313,-21.3091 -0.4787,-26.3874 -1.8392,-5.2128 -5.52,-9.3082 -10.9612,-12.1959 -3.3429,-1.7741 -5.7607,-2.1287 -14.7177,-2.1584 -16.112,-0.053 -15.1999,-1.841 -15.6206,30.612 l -0.3384,26.0944 12.8384,-0.429 c 10.0798,-0.3368 13.8052,-0.8641 17.3383,-2.4542 z m -1166.00082,64.9525 c 6.9e-4,-1.8298 0.74468,-2.3003 4.53695,-2.869 2.49487,-0.3741 5.53237,-1.4869 6.75,-2.4729 l 2.21387,-1.7927 v -54.0526 c 0,-61.3089 0.624,-57.0214 -8.42533,-57.8909 C 749.53792,1033.7972 749,1033.494 749,1031.3728 V 1029 h 23.5 23.5 v 2.5 c 0,2.3 -0.36364,2.5 -4.54545,2.5 -6.22241,0 -9.05263,2.8829 -9.93089,10.1158 -0.35957,2.9613 -0.512,26.8359 -0.33872,53.0546 l 0.31506,47.6704 2.42431,2.5796 c 1.63941,1.7444 3.47458,2.5796 5.66822,2.5796 4.52202,0 6.40747,0.9039 6.40747,3.0718 0,1.7495 -1.36872,1.8743 -23.50082,2.143 l -23.50082,0.2852 z m 372.41752,1.772 c -1.3712,-1.3712 -0.1229,-4.1062 2.0833,-4.5642 1.375,-0.2855 3.6181,-0.751 4.9848,-1.0343 4.0886,-0.8478 4.241,-4.5915 0.6272,-15.4149 -1.7574,-5.2635 -4.6391,-13.1699 -6.4037,-17.5699 l -3.2083,-8 h -21.9345 -21.9344 l -4.8807,14 c -7.3151,20.9833 -6.6303,25.4393 4.2382,27.5775 4.7837,0.9412 6.0114,1.5646 6.0114,3.0526 0,1.7569 -1.082,1.8699 -17.9064,1.8699 -17.3135,0 -17.8893,-0.065 -17.392,-1.9669 0.2829,-1.0818 1.3203,-2.2227 2.3053,-2.5353 2.6296,-0.8346 6.9152,-5.4247 9.1441,-9.7938 1.0725,-2.1023 8.0334,-19.4332 15.4687,-38.5131 7.4353,-19.08 15.6738,-40.0909 18.3077,-46.6909 2.6339,-6.6 6.0171,-15.2625 7.5182,-19.25 2.6541,-7.0505 2.8232,-7.25 6.1418,-7.25 2.4172,0 3.4126,0.4526 3.4126,1.5516 0,1.6262 37.7658,96.565 43.0385,108.1935 3.2351,7.1348 6.4204,11.2549 8.7016,11.2549 2.6718,0 5.0851,1.9526 4.6184,3.7369 -0.4219,1.6136 -2.2441,1.7631 -21.4931,1.7631 -11.5676,0 -21.2196,-0.1875 -21.4487,-0.4167 z m -4.9769,-54.3333 c -0.5447,-1.7637 -14.1255,-37.6329 -17.8898,-47.25 -0.7105,-1.815 -0.8771,-1.7226 -1.8023,1 -0.5607,1.65 -5.0083,13.0167 -9.8835,25.2594 -4.8753,12.2427 -8.8642,22.4802 -8.8642,22.75 0,0.2698 8.8053,0.4906 19.5674,0.4906 h 19.5674 z m 355.8102,54.4822 -24.25,-0.2678 v -2.2697 c 0,-1.964 0.5523,-2.2917 4.1008,-2.4332 5.3341,-0.2128 8.467,-2.3504 9.2607,-6.3188 0.3512,-1.756 0.6385,-25.4259 0.6385,-52.5998 0,-55.3343 -0.047,-55.7692 -6.1741,-56.7637 -1.8292,-0.2969 -4.4509,-0.6612 -5.8259,-0.8095 -1.7434,-0.1881 -2.5,-0.875 -2.5,-2.2697 0,-1.9672 0.7534,-2.0043 45.877,-2.2602 l 45.8771,-0.2601 -0.6271,3.1351 c -0.3448,1.7244 -0.627,10.0852 -0.627,18.5798 0,15.3904 -0.01,15.4434 -2.2231,15.125 -1.9364,-0.2784 -2.3838,-1.2871 -3.4679,-7.8196 -1.7028,-10.2606 -3.8238,-15.3668 -7.8525,-18.9041 -4.501,-3.9519 -8.1154,-4.5959 -25.7949,-4.5959 -20.2378,0 -18.6616,-2.5855 -18.6616,30.6108 V 1091 h 8.5321 c 14.1176,0 18.7499,-3.5313 20.0824,-15.3093 0.6412,-5.6674 2.411,-8.1401 4.3469,-6.0735 0.4548,0.4855 0.9871,11.682 1.1828,24.881 0.3477,23.4498 0.3101,23.9983 -1.6442,24 -1.6236,0 -2.1554,-0.9391 -2.8256,-4.9982 -1.3554,-8.209 -3.8931,-13.7258 -7.188,-15.6268 -2.5703,-1.483 -14.2133,-2.5675 -21.2364,-1.9781 -0.958,0.08 -1.2398,4.9522 -1.2064,20.8549 0.046,21.8869 0.74,28.4621 3.2716,30.9938 0.8866,0.8865 4.2066,1.8061 7.7699,2.1521 5.4173,0.526 6.2649,0.8885 6.5544,2.8037 0.1829,1.2098 0,2.3348 -0.4035,2.5 -0.4048,0.1652 -11.6485,0.1799 -24.986,0.033 z m 79.7492,-1.8656 c 8e-4,-2.1732 2.2958,-3.3255 6.6782,-3.3529 1.1976,-0.01 3.1101,-1.1994 4.25,-2.6486 2.0375,-2.5902 2.0726,-3.5314 2.0726,-55.5454 v -52.9106 l -2.4545,-2.4546 c -1.8861,-1.886 -3.5073,-2.4545 -7,-2.4545 -4.1819,0 -4.5455,-0.2 -4.5455,-2.5 v -2.5 h 23.5 23.5 v 2.5 c 0,2.3 -0.3636,2.5 -4.5455,2.5 -3.4927,0 -5.1139,0.5685 -7,2.4545 l -2.4545,2.4546 v 52.9897 52.9897 l 2.25,2.5367 c 1.6704,1.8833 3.4092,2.6082 6.75,2.8144 3.7741,0.233 4.5508,0.6335 4.8148,2.4829 l 0.3148,2.2052 -23.0656,0.2861 c -22.9693,0.285 -23.0657,0.2773 -23.0648,-1.8472 z m 78.3937,1.8614 -18.1071,-0.272 0.4737,-2.478 c 0.4037,-2.1122 1.0268,-2.478 4.2207,-2.478 4.5278,0 8.6839,-3.6425 9.5412,-8.3621 0.3135,-1.7258 0.4369,-25.4895 0.2743,-52.808 l -0.2957,-49.6702 -2.4243,-2.5798 c -1.3763,-1.4646 -3.5378,-2.5858 -5,-2.5936 -4.5428,-0.024 -7.0757,-1.1348 -7.0757,-3.1029 0,-1.768 1.0055,-1.8834 16.4134,-1.8834 h 16.4134 l 9.8366,15.0136 c 20.3261,31.0238 52.2139,79.1971 52.8345,79.8176 0.3544,0.3544 0.4925,-17.8001 0.3068,-40.3434 -0.3604,-43.7628 -0.4906,-44.9113 -5.3841,-47.5303 -1.2972,-0.6942 -4.06,-1.5372 -6.1396,-1.8733 -2.9213,-0.4722 -3.8537,-1.1197 -4.1006,-2.8477 L 1691.8609,1029 H 1710 h 18.1391 l -0.3195,2.25 c -0.2541,1.7888 -1.1396,2.3637 -4.3196,2.8048 -5.8902,0.8169 -8.2873,2.5181 -9.4507,6.707 -0.6601,2.3769 -1.0402,24.0395 -1.0437,59.4882 L 1713,1156 h -2.7936 c -2.3557,0 -3.5529,-1.1363 -7.6384,-7.25 -7.5217,-11.2559 -64.9305,-98.8186 -67.366,-102.75 l -2.1683,-3.5 -0.017,48.7821 c -0.018,51.1866 0.1332,53.1111 4.4418,56.6845 0.9726,0.8067 3.805,1.7067 6.2942,2 3.4915,0.4115 4.7125,1.0404 5.3425,2.7516 0.4492,1.22 0.499,2.345 0.1107,2.5 -0.3883,0.155 -8.8542,0.1594 -18.8131,0.01 z m 111.0232,-0.1447 c -0.2288,-0.2291 -0.4161,-1.2261 -0.4161,-2.2155 0,-1.4015 1.095,-1.9442 4.9564,-2.4564 9.1052,-1.2079 8.5056,2.727 8.8188,-57.8739 0.3144,-60.8522 0.8542,-57.0465 -8.2752,-58.3445 -4.1551,-0.5908 -5.054,-1.0896 -5.3196,-2.952 l -0.3195,-2.241 h 45.5187 45.5186 l -0.4458,16.75 c -0.4181,15.7064 -0.5685,16.7696 -2.4138,17.0649 -1.3937,0.2231 -2.0936,-0.3605 -2.3988,-2 -0.237,-1.2732 -0.9577,-5.2399 -1.6017,-8.8149 -1.3666,-7.5873 -4.7051,-13.2314 -9.2838,-15.6956 -2.7362,-1.4726 -6.0142,-1.7557 -20.5899,-1.7779 -23.1147,-0.035 -21.1644,-2.7616 -21.1644,29.5843 V 1089 l 6.75,-0.077 c 13.5282,-0.154 17.7265,-3.1449 19.2171,-13.6905 1.0262,-7.2599 1.5097,-8.2326 4.0919,-8.2326 1.8555,0 1.9414,0.8698 1.9497,19.75 0,10.8625 0.2925,22.1125 0.6393,25 0.6091,5.0713 0.5475,5.25 -1.8096,5.25 -2.2737,0 -2.5137,-0.5111 -3.5196,-7.4929 -1.8301,-12.7035 -4.7997,-15.3442 -18.234,-16.2146 L 1774,1092.704 v 26.0372 c 0,33.386 -1.7119,30.6451 19.4112,31.0792 18.7945,0.3862 24.6709,-0.872 29.4397,-6.3034 3.3035,-3.7624 5.8229,-10.8932 6.8073,-19.267 0.5797,-4.9311 0.7866,-5.25 3.4067,-5.25 h 2.7895 l -0.5429,12.75 c -0.2986,7.0125 -0.1038,15.104 0.4329,17.9811 l 0.9757,5.231 -47.4439,0.269 c -26.0941,0.1479 -47.6312,0.081 -47.8601,-0.1478 z m 273.3339,0.1677 c -21.5545,-0.2734 -22.75,-0.388 -22.75,-2.1819 0,-1.4503 0.9944,-2.058 4.25,-2.5973 6.2297,-1.032 7.5556,-2.0428 8.8388,-6.7388 1.348,-4.9325 0.6289,-36.1267 -0.8768,-38.0385 -0.5174,-0.657 -6.6745,-11.7695 -13.6822,-24.6945 -20.8127,-38.3864 -23.4614,-42.8602 -27.0889,-45.7545 -1.8925,-1.51 -3.4409,-3.5421 -3.4409,-4.5158 0,-1.6455 1.4624,-1.7512 20.75,-1.5 19.8949,0.2592 20.75,0.3516 20.75,2.2426 0,1.5498 -0.9405,2.1329 -4.3901,2.7218 -4.9977,0.8532 -8.1099,3.1964 -8.1099,6.106 0,1.8245 6.9138,16.2177 14.2663,29.6999 8.3012,15.2219 14.7854,26.701 16.0767,28.461 1.3312,1.8145 2.4555,-0.072 15.0479,-25.2429 17.1983,-34.3785 17.4254,-36.2245 4.7664,-38.7419 -4.6146,-0.9177 -5.7162,-1.526 -5.9769,-3.3006 -0.3174,-2.1614 -0.2084,-2.1756 16.691,-2.1756 9.3558,0 17.2636,0.4094 17.5728,0.9098 0.9887,1.5996 -0.3906,3.5782 -3.4331,4.925 -4.4763,1.9814 -8.2245,7.4132 -17.1203,24.8104 -4.4589,8.7202 -11.4657,22.3003 -15.5706,30.1781 l -7.4634,14.3232 0.3216,21.0167 c 0.3106,20.2951 0.3976,21.0783 2.5355,22.8078 1.2176,0.9851 4.2551,2.0972 6.75,2.4713 3.9555,0.5932 4.5361,0.9924 4.5361,3.119 0,1.3413 -0.1125,2.3351 -0.25,2.2084 -0.1375,-0.1266 -10.4875,-0.3601 -23,-0.5187 z M 811,1152.5 c 0,-2.3 0.36364,-2.5 4.54545,-2.5 3.50536,0 5.11293,-0.5675 7.02542,-2.48 l 2.47996,-2.4799 -0.27541,-53.4849 c -0.31071,-60.3374 0.30171,-56.1404 -8.3721,-57.3751 -4.11958,-0.5864 -4.9561,-1.0692 -5.23356,-3.0206 l -0.33023,-2.3226 33.83023,0.4285 c 28.07315,0.3557 34.8262,0.7197 39.68278,2.1396 19.92402,5.8247 30.82372,16.0117 37.10391,34.6778 3.75495,11.1605 4.73832,31.4493 2.09924,43.3115 -4.6782,21.0276 -19.07092,36.2214 -40.85731,43.1313 -7.62414,2.4181 -8.52845,2.4744 -39.75,2.4744 H 811 Z m 65.8751,-4.384 c 17.88917,-5.5677 25.19052,-15.8967 28.21342,-39.9127 1.48061,-11.763 0.61526,-34.4117 -1.62918,-42.6403 -4.07454,-14.9382 -12.2328,-24.6068 -24.23708,-28.724 -5.63617,-1.9331 -8.79477,-2.3083 -19.5499,-2.3223 -11.30051,-0.015 -12.98776,0.2018 -14.17268,1.8187 -2.25115,3.0718 -2.67288,14.2365 -2.32929,61.6646 0.34975,48.2801 0.43187,49.0941 5.14498,50.993 4.20109,1.6927 22.06601,1.1441 28.55973,-0.877 z M 942,1153.0613 c 0,-1.5323 0.9473,-2.0808 4.51897,-2.6164 3.11538,-0.4672 5.13428,-1.4599 6.5,-3.1961 1.91801,-2.4384 1.98103,-4.2016 1.98103,-55.4291 v -52.9106 l -2.45455,-2.4546 c -1.79707,-1.797 -3.53815,-2.4545 -6.5,-2.4545 -3.64848,0 -4.04545,-0.2453 -4.04545,-2.5 v -2.5 h 44.89214 44.89216 l -0.3899,16.75 c -0.3145,13.5144 -0.667,16.8099 -1.8246,17.0603 -1.9505,0.4219 -3.168,-2.2585 -4.0017,-8.8103 -0.8471,-6.6574 -3.442,-12.7154 -6.7463,-15.7496 -3.5053,-3.2188 -12.0991,-4.4915 -27.63796,-4.093 C 972.70717,1034.6311 974,1032.3672 974,1064.2495 v 25.0279 l 8.98238,-0.5121 c 13.06614,-0.745 15.4648,-2.7753 17.44442,-14.7653 0.9228,-5.5892 1.3885,-6.5448 3.3232,-6.8196 1.3405,-0.1903 2.2717,0.2139 2.3036,1 0.029,0.7258 0.213,12.0071 0.4077,25.0696 l 0.3541,23.75 h -2.2086 c -1.9855,0 -2.3175,-0.7567 -3.288,-7.4929 -1.79319,-12.4472 -5.04303,-15.2321 -18.91776,-16.2113 l -8.49595,-0.5996 0.29746,26.6179 c 0.26779,23.9634 0.47525,26.7957 2.08033,28.4018 1.51413,1.5152 4.00128,1.8354 16.5,2.1243 8.88542,0.2054 16.81472,-0.124 20.01062,-0.8314 9.9075,-2.193 15.1097,-9.8302 16.8647,-24.7588 0.5685,-4.8363 0.823,-5.2499 3.2295,-5.2493 l 2.6123,6e-4 0.032,17.9994 0.032,17.9993 H 988.78178 C 943.15951,1155 942,1154.9519 942,1153.0613 Z m 395,0.027 c 0,-1.4724 0.9773,-2.074 4.25,-2.6161 5.8791,-0.9739 7.3685,-1.9387 8.6448,-5.5999 1.504,-4.3143 1.541,-101.3234 0.04,-105.6282 -1.1133,-3.1936 -4.1352,-4.9402 -9.4351,-5.4533 -2.2395,-0.2168 -3.081,-0.8608 -3.3196,-2.5404 l -0.3195,-2.25 h 45.6765 c 41.2402,0 45.6176,0.1536 45.0696,1.5818 -0.3339,0.87 -0.607,8.5513 -0.607,17.0695 0,15.3609 -0.018,15.4852 -2.1874,15.1683 -1.8832,-0.2752 -2.3575,-1.3328 -3.4104,-7.6039 -1.5802,-9.4118 -4.9309,-16.1262 -9.2939,-18.6237 -2.8486,-1.6307 -5.8912,-2.0096 -19,-2.3661 -9.9331,-0.2702 -16.6258,-0.027 -18.4067,0.6684 -5.0532,1.9736 -5.7016,5.5074 -5.7016,31.0736 V 1089 h 7.6843 c 5.6592,0 8.7811,-0.531 11.8462,-2.0148 4.5342,-2.1949 6.1506,-4.7873 7.0259,-11.2677 1.1088,-8.2105 1.3393,-8.7175 3.9627,-8.7175 H 1402 v 20.3604 c 0,11.1983 0.2911,22.4845 0.647,25.0806 l 0.6469,4.7202 -2.8969,-0.3306 c -2.7927,-0.3187 -2.9206,-0.5688 -3.5513,-6.9451 -1.261,-12.7492 -4.9565,-15.9792 -19.0957,-16.6902 l -8.75,-0.4399 v 26.1223 c 0,33.7166 -1.657,31.6488 24.79,30.9355 24.4073,-0.6582 26.7785,-2.5619 31.2175,-25.0632 1.0031,-5.0851 1.4115,-5.75 3.531,-5.75 h 2.3968 l -0.012,18 -0.012,18 h -46.9555 c -45.5693,0 -46.9555,-0.056 -46.9555,-1.9121 z m 43.368,-228.22531 c -19.2802,-19.5139 -36.5866,-40.86949 -54.868,-61.31661 -1.1,-1.23404 -6.0854,-6.69931 -11.0786,-12.14504 -8.0513,-8.7809 -19.3058,-21.11908 -34.9214,-38.28419 -2.75,-3.02286 -4.1842,-5.18912 -3.1871,-4.8139 6.458,2.43031 31.2579,6.64269 39.3184,6.67843 3.5764,0.0159 4.509,0.51355 6.9436,3.70535 1.5467,2.02786 4.0205,4.84036 5.4973,6.25 2.7894,2.66261 19.4011,21.9464 24.1743,28.06297 1.5022,1.925 2.7363,2.96667 2.7424,2.31483 0.01,-0.65184 -3.4838,-8.30184 -7.7554,-17 -4.2716,-8.69816 -8.6269,-17.83983 -9.6785,-20.31483 -1.0517,-2.475 -2.0731,-4.77409 -2.2699,-5.10909 -0.1968,-0.335 1.6438,-0.88345 4.0903,-1.21878 2.4465,-0.33532 8.3848,-1.97373 13.1964,-3.6409 4.8116,-1.66718 9.0959,-3.03123 9.5209,-3.03123 0.4249,0 1.068,0.93097 1.4291,2.06883 0.3612,1.13785 3.2667,7.55035 6.4567,14.25 14.8473,31.18196 18.7891,39.58502 21.0689,44.9141 1.3489,3.15312 2.6776,5.74087 2.9526,5.75057 0.275,0.01 0.275,-18.99512 0,-42.23293 l -0.5,-42.25057 10.0371,-10 c 5.5203,-5.5 11.9328,-12.92125 14.25,-16.49166 2.3171,-3.57041 4.2261,-6.04541 4.2422,-5.5 0.016,0.54541 0.043,26.86666 0.059,58.49166 l 0.03,57.5 5.6908,-11.53617 c 3.1299,-6.3449 8.3523,-17.1449 11.6054,-24 3.2531,-6.85511 9.8378,-20.56383 14.6327,-30.46383 16.313,-33.68187 28.0321,-58.23645 42.2382,-88.5 1.9364,-4.125 7.6155,-15.99068 12.6203,-26.36818 5.0048,-10.37749 12.3158,-25.82343 16.2467,-34.32429 8.1304,-17.58297 8.1262,-14.25744 0.036,-28.80753 -2.1405,-3.85 -5.3746,-9.7 -7.1868,-13 -1.8122,-3.3 -5.029,-9.00351 -7.1485,-12.67447 -2.1195,-3.67096 -3.8537,-6.9765 -3.8537,-7.34563 0,-0.36914 -0.8304,-1.86563 -1.8453,-3.32553 -1.0148,-1.4599 -4.1028,-6.92937 -6.8621,-12.15437 -6.5546,-12.41167 -12.7318,-23.55877 -15.6903,-28.3138 -0.7481,-1.20241 -3.3755,-6.0112 -5.8386,-10.6862 -2.463,-4.675 -5.608,-10.525 -6.9887,-13 -1.3807,-2.475 -4.4328,-8.1 -6.7824,-12.5 -2.3496,-4.4 -6.2341,-11.47189 -8.6323,-15.71531 L 1450,491.06938 V 462.03469 433 h 34.5 34.5 v 14 14 h -20.5456 -20.5456 l 0.1544,11.93718 0.1544,11.93718 4.8894,8.30752 c 2.6892,4.56913 5.0037,8.65035 5.1434,9.06937 0.3052,0.91564 22.246,1.29919 56.1663,0.98186 24.2053,-0.22645 57.4403,0.002 55.6071,0.0419 -1.1022,0.0239 -0.064,-0.0135 0.1763,0.1044 1.3703,0.67232 18.8358,28.6834 20.9522,31.81572 3.7739,6.16524 7.6879,12.25326 11.5981,18.41906 7.2074,11.22623 30.1869,45.89619 31.214,47.0936 0.5698,0.66429 1.036,1.48788 1.036,1.83021 0,0.34232 2.6261,4.52382 5.8358,9.2922 3.2097,4.76839 8.8957,13.27524 12.6355,18.90411 7.5698,11.39355 7.5404,9.92679 0.3568,17.76114 -2.0196,2.2025 -4.4946,4.94889 -5.5,6.10308 -1.0055,1.15419 -4.3784,4.97919 -7.4955,8.5 -3.1171,3.52081 -6.6407,7.52647 -7.8303,8.90147 -3.5678,4.12395 -15.3224,17.18334 -18.0023,20.00058 -1.375,1.44547 -5.1915,5.74917 -8.4811,9.56377 -3.2897,3.81461 -6.6684,7.61065 -7.5082,8.43565 -1.249,1.22686 -10.5553,11.65858 -24.6757,27.65981 -5.7404,6.50507 -16.1011,18.06269 -18.335,20.45312 -1.375,1.47138 -4.0425,4.41039 -5.9279,6.53115 -1.8853,2.12076 -5.2276,5.88092 -7.4275,8.35592 -2.1998,2.475 -8.3459,9.225 -13.658,15 -5.3121,5.775 -11.4198,12.525 -13.5725,15 -2.1528,2.475 -4.1391,4.725 -4.4141,5 -0.4347,0.43472 -10.6877,11.8009 -22.0977,24.49684 -1.9787,2.20174 -9.1759,10.30316 -15.9938,18.00316 -6.8179,7.7 -12.8489,14.48535 -13.4023,15.07857 -6.9877,8.45103 -14.0573,16.01172 -21.0099,24.48578 -27.4955,34.299 -27.5976,34.21912 -54.3258,67.44227 0,0 -7.364,-5.88423 -33.8029,-32.64363 z m 88.4027,-77.67875 c 3.4488,-4.22633 7.8888,-9.48424 9.8667,-11.68424 1.9778,-2.2 6.4324,-7.15 9.899,-11 3.4667,-3.85 7.1267,-7.95124 8.1333,-9.11387 1.0067,-1.16262 4.0803,-4.57931 6.8303,-7.59265 2.75,-3.01333 6.35,-7.01301 8,-8.88819 9.5855,-10.89359 31.3317,-35.17952 37.5,-41.8796 2.7566,-2.99427 14.4438,-16.09073 17.3278,-19.41738 1.0053,-1.15957 3.7365,-4.13331 6.0693,-6.60831 2.3328,-2.475 6.4146,-6.975 9.0707,-10 12.0828,-13.76108 17.284,-19.5938 20.5322,-23.02536 1.925,-2.03367 4.826,-5.22242 6.4467,-7.08611 6.2307,-7.16494 26.1834,-29.4143 28.8033,-32.11877 1.5125,-1.56129 2.75,-3.0482 2.75,-3.30424 0,-0.25604 -18.5625,-0.46071 -41.25,-0.45482 l -41.25,0.0107 -4.4278,9.23931 c -2.4352,5.08161 -8.1173,16.8893 -12.6268,26.2393 -4.5094,9.35 -10.7877,22.4 -13.9516,29 -14.015,29.2354 -18.7981,39.16154 -27.4664,57 -5.0779,10.45 -10.828,22.375 -12.7778,26.5 -1.9498,4.125 -8.3947,17.5125 -14.3219,29.75 -5.9273,12.2375 -10.4733,22.22041 -10.1023,22.18424 0.371,-0.0362 3.4964,-3.52366 6.9453,-7.75 z m 177.6214,-221.46012 c -0.3816,-0.67326 -5.8639,-9.09912 -12.1828,-18.72412 -26.0823,-39.7285 -44.1225,-66.46853 -46.1378,-69.70738 l -3.1906,-5.20739 -40.3755,-0.0629 -40.3756,-0.0629 3.793,6.77025 c 2.0862,3.72363 6.0624,10.82024 8.8361,15.77024 2.7737,4.95 6.0383,10.8 7.2548,13 3.7384,7.70973 8.7945,14.67829 12.6999,22.25 0.6337,1.5125 2.6891,5.45 4.5677,8.75 1.8785,3.3 4.3116,7.575 5.4068,9.5 1.0952,1.925 3.8852,6.95299 6.1999,11.17332 l 4.2086,7.67332 44.9947,0.0508 c 35.2116,0.0398 44.8439,-0.21536 44.3008,-1.17332 z M 1300.5,789.3315 c -13.832,-1.70056 -32.6891,-8.29886 -46,-16.09586 -19.5353,-11.44306 -31.7163,-22.47742 -55.8888,-50.62792 -2.6888,-3.1313 -6.0638,-6.9703 -7.5,-8.5311 -3.1349,-3.40694 -15.8665,-17.54841 -18.4444,-20.48696 -9.3869,-10.69998 -22.1789,-25.12757 -26.6668,-30.07645 -3.025,-3.33569 -7.975,-8.94001 -11,-12.45405 -3.025,-3.51404 -6.0625,-6.95777 -6.75,-7.65273 -0.6875,-0.69497 -1.25,-1.62434 -1.25,-2.06528 0,-0.78241 6.5931,-11.85328 8.2429,-13.84115 1.0058,-1.21192 11.0446,-16.5921 19.2571,-29.50335 7.8471,-12.33672 18.1581,-28.21775 19.1866,-29.55123 0.4474,-0.58002 1.343,-1.93002 1.9903,-3 0.6473,-1.06998 3.9205,-6.22042 7.2738,-11.44542 3.3532,-5.225 6.6486,-10.37544 7.323,-11.44542 0.6745,-1.06998 1.5879,-2.41998 2.0298,-3 0.4419,-0.58002 5.9049,-8.83237 12.14,-18.33855 l 11.3365,-17.28397 55.5117,0.0248 55.5116,0.0248 c 12.7424,-19.85695 2.4606,-3.05449 9.3609,-13.98528 2.3077,-3.65569 1.8358,-5.87935 1.8358,-16.95572 v -11.99917 l -20.25,-0.2707 -20.25,-0.27071 -0.2783,-13.76299 -0.2783,-13.76299 34.7783,0.26299 34.7783,0.26299 0.2065,28.15269 0.2065,28.15268 c -4.0106,6.92143 -7.8149,13.91503 -11.7268,20.90062 -1.5475,2.63671 -5.4679,9.74401 -8.7119,15.79401 -5.912,11.02561 -10.1461,18.82687 -12.7547,23.5 -0.7675,1.375 -3.1003,5.65 -5.184,9.5 -2.0837,3.85 -4.1147,7.45 -4.5135,8 -0.3988,0.55 -2.8824,5.05 -5.5192,10 -2.6368,4.95 -6.6834,12.375 -8.9925,16.5 -2.309,4.125 -5.5491,9.975 -7.2,13 -3.8551,7.06336 -12.338,22.20566 -15.6861,28 -1.4301,2.475 -2.6056,5.10582 -2.6123,5.84626 -0.01,0.74044 2.189,5.91544 4.8792,11.5 5.6647,11.75937 12.5053,26.13796 18.8653,39.65374 7.1528,15.20062 10.4661,22.20371 26.6563,56.34158 2.8259,5.95842 5.1449,9.66563 5.8774,9.39566 0.6654,-0.24526 3.5675,-1.22106 6.4492,-2.16844 5.3805,-1.76888 17.8133,-9.40808 22.2606,-13.67774 10.4885,-10.06965 18.6044,-24.27286 21.5315,-37.68154 0.9257,-4.24024 2.0848,-8.74319 2.5758,-10.00657 0.7932,-2.04104 1.358,-82.20295 0.5791,-82.20295 -0.1725,0 -9.735,3.07922 -21.25,6.84272 -11.515,3.76349 -24.3114,7.90049 -28.4364,9.19332 -4.125,1.29283 -8.0734,2.77774 -8.7742,3.29978 -2.9418,2.19147 -1.9024,-0.64731 4.0094,-10.95047 3.4456,-6.00511 6.9391,-12.26095 7.7632,-13.90187 0.8241,-1.64091 1.7276,-3.20848 2.0076,-3.48348 0.2801,-0.275 1.8216,-2.975 3.4256,-6 4.755,-8.96758 5.0429,-9.47785 5.6434,-10 0.3163,-0.275 2.5663,-4.325 5,-9 2.4338,-4.675 4.65,-8.725 4.925,-9 0.6109,-0.61093 2.8657,-4.58442 10.2141,-18 1.9582,-3.575 4.811,-8.75 6.3396,-11.5 3.0715,-5.52582 6.2624,-11.41753 10.2903,-19 1.4608,-2.75 2.9148,-5.225 3.2312,-5.5 0.3164,-0.275 2.5664,-4.21206 5,-8.74901 4.1796,-7.79193 5.9224,-9.85056 5.9267,-7.00099 0,0.6875 2.1631,4.85 4.8046,9.25 2.6415,4.4 5.1101,8.80985 5.4858,9.79966 0.3757,0.98981 2.6372,5.03981 5.0256,9 2.3885,3.96019 4.9789,8.66284 5.7565,10.45034 0.7776,1.7875 1.754,3.25 2.1697,3.25 0.4158,0 0.7559,0.45055 0.7559,1.00121 0,0.55067 3.5958,7.04064 7.9906,14.42217 7.8155,13.12664 9.3096,15.7855 17.9879,32.00886 2.3337,4.36274 4.8683,8.55738 5.6323,9.32143 0.7641,0.76405 1.3892,1.79108 1.3892,2.28229 0,0.49121 1.9455,4.17156 4.3233,8.17857 8.5075,14.33655 12.6937,22.10181 12.1876,22.60787 -0.5609,0.56091 -4.0784,-0.52534 -37.1844,-11.48316 -12.1954,-4.03658 -22.4329,-7.33924 -22.75,-7.33924 -0.3171,0 -0.5765,17.73865 -0.5765,39.41923 0,38.19345 -0.079,39.81609 -2.5395,52.18202 -4.9446,24.85026 -13.8783,41.54167 -30.7215,57.39875 -14.7584,13.89444 -34.7589,23.9703 -54.739,27.57654 -6.8231,1.23152 -26.0918,1.66576 -33.5,0.75496 z m 7.5,-29.20938 c 0,-1.19622 -2.4471,-6.9753 -7.2502,-17.12212 -45.3568,-95.81829 -41.2141,-87.68916 -45.0071,-88.31636 -1.7835,-0.29492 -20.2302,-0.57387 -40.9927,-0.61989 -29.741,-0.0659 -37.7482,0.18365 -37.7413,1.17629 0,0.69298 1.4792,2.83496 3.2765,4.75996 1.7972,1.925 8.4143,9.35 14.7045,16.5 6.2902,7.15 11.6783,13.225 11.9735,13.5 0.2953,0.275 4.1368,4.55 8.5368,9.5 4.4,4.95 8.45,9.49768 9,10.10596 0.55,0.60828 4.375,4.88253 8.5,9.49834 19.0682,21.337 33.7157,31.9285 51.8882,37.52005 12.1008,3.72333 23.1118,5.38975 23.1118,3.49777 z M 1262.313,621.75 c 1.5019,-2.8875 3.7654,-7.05 5.03,-9.25 1.2646,-2.2 4.1219,-7.375 6.3496,-11.5 2.2277,-4.125 5.0826,-9.3 6.3441,-11.5 3.2357,-5.64248 15.4944,-27.753 19.6822,-35.5 3.4348,-6.35398 5.8308,-10.67374 10.1226,-18.25 l 2.1243,-3.75 -40.7329,0.002 -40.7329,0.002 -2.9414,4.74821 c -1.6178,2.61151 -9.4384,14.64821 -17.3791,26.74821 -7.9407,12.1 -16.7831,25.6 -19.6498,30 -2.8666,4.4 -8.7711,13.4 -13.1209,20 -4.3498,6.6 -8.0588,12.3375 -8.2421,12.75 -0.1834,0.4125 20.0851,0.75 45.0411,0.75 h 45.3744 z m 145.3924,-174.37793 c -0.388,-0.38797 -0.7054,-1.7696 -0.7054,-3.07028 0,-3.91879 -3.9341,-14.34559 -7.2081,-19.10418 -6.5666,-9.54426 -15.0922,-15.60929 -25.7919,-18.34819 -3.575,-0.91513 -5.825,-1.87297 -5,-2.12855 0.825,-0.25558 4.2,-1.25565 7.5,-2.22237 7.3688,-2.15868 14.7545,-6.78927 19.842,-12.4403 4.2753,-4.7489 9.3503,-14.69376 10.236,-20.0582 1.0879,-6.58949 1.6042,-6.49153 3.4422,0.65303 2.3663,9.19817 4.7254,13.7355 10.4546,20.10774 5.2403,5.82847 15.8403,11.71406 23.0422,12.79404 5.5776,0.83643 5.751,2.05516 0.4206,2.95574 -2.2344,0.37748 -7.1163,2.21414 -10.8489,4.08145 -12.1736,6.09024 -20.5553,17.40031 -23.4897,31.69674 -0.6535,3.1838 -1.5056,5.4713 -1.8936,5.08333 z m -75.824,-84.03067 c -6.4922,-6.41222 -12.5276,-13.18332 -13.4119,-15.04687 -4.514,-9.51268 6.3801,-17.47991 14.9361,-10.92321 5.0623,3.87934 23.0315,22.58515 23.8702,24.84861 1.0826,2.92183 -0.931,8.36366 -3.9831,10.76443 -1.4675,1.1544 -4.0675,2.01564 -6.0849,2.01564 -3.1535,0 -4.7587,-1.22102 -15.3264,-11.6586 z m 129.8669,9.13414 c -2.7297,-2.7297 -3.7411,-6.06257 -3.0062,-9.90683 0.6619,-3.46224 25.3672,-27.53439 28.4121,-27.68386 4.8716,-0.23915 6.4229,0.30384 9.0958,3.18371 1.993,2.14741 2.75,4.00411 2.75,6.74536 0,3.5089 -0.894,4.67234 -12.3655,16.09205 -6.801,6.77033 -12.9885,12.70427 -13.75,13.18655 -2.8704,1.81793 -8.5219,0.99735 -11.1362,-1.61698 z m -59.4869,-33.00502 c -3.1742,-2.22327 -3.9389,-6.28359 -4.1712,-22.14837 -0.246,-16.78871 0.7589,-21.67563 4.8969,-23.81547 5.6482,-2.92079 10.8938,-1.57144 13.5025,3.4733 1.1746,2.27131 1.5104,6.72614 1.5104,20.0361 0,17.24567 -0.4871,20.07155 -3.9133,22.70212 -2.2375,1.71785 -9.2282,1.57143 -11.8253,-0.24768 z"
       id="path1" />
  </g>
</svg>
